<svg width="17" height="19" viewBox="0 0 17 19" fill="none" xmlns="http://www.w3.org/2000/svg">
<mask id="path-1-inside-1_1063_513" fill="white">
<path d="M8.09515 0.764404C8.37848 1.2906 8.78324 1.69536 9.30943 1.97869C8.78324 2.26202 8.37848 2.66679 8.09515 3.19298C7.81181 2.66679 7.40705 2.26202 6.88086 1.97869C7.40705 1.69536 7.81181 1.2906 8.09515 0.764404Z"/>
</mask>
<path d="M8.09515 0.764404C8.37848 1.2906 8.78324 1.69536 9.30943 1.97869C8.78324 2.26202 8.37848 2.66679 8.09515 3.19298C7.81181 2.66679 7.40705 2.26202 6.88086 1.97869C7.40705 1.69536 7.81181 1.2906 8.09515 0.764404Z" stroke="white" stroke-width="2" mask="url(#path-1-inside-1_1063_513)"/>
<mask id="path-2-inside-2_1063_513" fill="white">
<path d="M14.9762 3.19284C15.2596 3.71903 15.6643 4.12379 16.1905 4.40713C15.6643 4.69046 15.2596 5.09522 14.9762 5.62141C14.6929 5.09522 14.2882 4.69046 13.762 4.40713C14.2882 4.12379 14.6929 3.71903 14.9762 3.19284Z"/>
</mask>
<path d="M14.9762 3.19284C15.2596 3.71903 15.6643 4.12379 16.1905 4.40713C15.6643 4.69046 15.2596 5.09522 14.9762 5.62141C14.6929 5.09522 14.2882 4.69046 13.762 4.40713C14.2882 4.12379 14.6929 3.71903 14.9762 3.19284Z" stroke="white" stroke-width="2" mask="url(#path-2-inside-2_1063_513)"/>
<mask id="path-3-inside-3_1063_513" fill="white">
<path d="M1.21429 3.19284C1.49762 3.71903 1.90238 4.12379 2.42857 4.40713C1.90238 4.69046 1.49762 5.09522 1.21429 5.62141C0.930953 5.09522 0.526191 4.69046 0 4.40713C0.526191 4.12379 0.930953 3.71903 1.21429 3.19284Z"/>
</mask>
<path d="M1.21429 3.19284C1.49762 3.71903 1.90238 4.12379 2.42857 4.40713C1.90238 4.69046 1.49762 5.09522 1.21429 5.62141C0.930953 5.09522 0.526191 4.69046 0 4.40713C0.526191 4.12379 0.930953 3.71903 1.21429 3.19284Z" stroke="white" stroke-width="2" mask="url(#path-3-inside-3_1063_513)"/>
<path d="M8.09534 17.7643C11.672 17.7643 14.5715 14.8648 14.5715 11.2881C14.5715 7.71144 11.672 4.81195 8.09534 4.81195C4.51863 4.81195 1.61914 7.71144 1.61914 11.2881C1.61914 14.8648 4.51863 17.7643 8.09534 17.7643Z" stroke="white" stroke-miterlimit="10"/>
<path d="M8.09522 16.024C10.7107 16.024 12.8309 13.9038 12.8309 11.2883C12.8309 8.67284 10.7107 6.55258 8.09522 6.55258C5.47975 6.55258 3.3595 8.67284 3.3595 11.2883C3.3595 13.9038 5.47975 16.024 8.09522 16.024Z" stroke="white" stroke-miterlimit="10" stroke-linecap="round" stroke-linejoin="round"/>
<path d="M8.09509 4.81195V6.431" stroke="white" stroke-miterlimit="10" stroke-linecap="round" stroke-linejoin="round"/>
<path d="M12.6689 6.71445L11.5355 7.84778" stroke="white" stroke-miterlimit="10" stroke-linecap="round" stroke-linejoin="round"/>
<path d="M14.5716 11.2884H12.9525" stroke="white" stroke-miterlimit="10" stroke-linecap="round" stroke-linejoin="round"/>
<path d="M12.6689 15.8622L11.5355 14.7289" stroke="white" stroke-miterlimit="10" stroke-linecap="round" stroke-linejoin="round"/>
<path d="M8.09509 17.7643V16.1453" stroke="white" stroke-miterlimit="10" stroke-linecap="round" stroke-linejoin="round"/>
<path d="M3.52136 15.8622L4.6547 14.7289" stroke="white" stroke-miterlimit="10" stroke-linecap="round" stroke-linejoin="round"/>
<path d="M1.61914 11.2884H3.23819" stroke="white" stroke-miterlimit="10" stroke-linecap="round" stroke-linejoin="round"/>
<path d="M3.52136 6.71445L4.6547 7.84778" stroke="white" stroke-miterlimit="10" stroke-linecap="round" stroke-linejoin="round"/>
<path d="M7.08337 12.8263L7.28576 13.0287C7.48814 13.2311 7.73099 13.312 8.01433 13.312H8.09528C8.66195 13.312 9.10718 12.8668 9.10718 12.3001C9.10718 11.7335 8.66195 11.2882 8.09528 11.2882C7.52861 11.2882 7.08337 10.843 7.08337 10.2763C7.08337 9.70964 7.52861 9.2644 8.09528 9.2644H8.17623C8.45957 9.2644 8.70242 9.38583 8.9048 9.54774L9.10718 9.75012" stroke="white" stroke-miterlimit="10" stroke-linecap="round" stroke-linejoin="round"/>
<path d="M8.09509 9.26439V8.45486" stroke="white" stroke-miterlimit="10" stroke-linecap="round" stroke-linejoin="round"/>
<path d="M8.09509 13.312V14.1215" stroke="white" stroke-miterlimit="10" stroke-linecap="round" stroke-linejoin="round"/>
</svg>
